<svg width="580" height="458" viewBox="0 0 580 458" fill="none" xmlns="http://www.w3.org/2000/svg">
<g clip-path="url(#clip0_396_294)">
<mask id="mask0_396_294" style="mask-type:luminance" maskUnits="userSpaceOnUse" x="17" y="250" width="195" height="180">
<path d="M212 250H17V430H212V250Z" fill="white"/>
</mask>
<g mask="url(#mask0_396_294)">
<path d="M212 261.522L211.787 261.624L190.607 251.462C189.675 251.015 188.747 250.49 187.785 250.108C186.778 249.708 185.657 250.516 184.748 250.952L172.1 257.021L162.507 261.624L141.513 251.549C140.528 251.076 139.543 250.536 138.533 250.12C137.548 249.717 136.615 250.406 135.736 250.837L123.261 256.954L113.735 261.623L92.5602 251.462C91.6279 251.015 90.7029 250.489 89.7377 250.108C88.7315 249.708 87.6103 250.516 86.701 250.952L74.0533 257.021L64.4596 261.624L43.2794 251.462C42.3471 251.015 41.4196 250.489 40.4569 250.108C39.4507 249.708 38.3295 250.516 37.4201 250.952L24.7725 257.021L17 260.75V263.481C17.1978 263.376 17.3915 263.272 17.5745 263.184L30.2255 257.114L39.8167 252.511L60.9985 262.673C61.9317 263.12 62.8591 263.646 63.8219 264.027C64.8281 264.427 65.9492 263.619 66.8586 263.184L79.5063 257.114L89.1 252.511L110.094 262.583L113.119 264.035C113.301 264.124 113.501 264.168 113.703 264.164C113.929 264.182 114.156 264.137 114.359 264.035L135.478 253.688L137.873 252.514L159.048 262.673C159.981 263.12 160.909 263.646 161.871 264.027C162.878 264.427 163.999 263.619 164.908 263.184L177.559 257.114L187.153 252.511L208.332 262.673C209.265 263.12 210.193 263.646 211.155 264.027C211.427 264.129 211.72 264.157 212.006 264.109L212 261.522Z" fill="#758799" fill-opacity="0.2"/>
<path d="M212 289.161L211.787 289.263L190.607 279.101C189.675 278.654 188.747 278.129 187.785 277.747C186.779 277.347 185.657 278.155 184.748 278.59L172.097 284.66L162.503 289.263L141.513 279.191C140.528 278.717 139.543 278.177 138.533 277.761C137.548 277.358 136.615 278.047 135.736 278.478L123.261 284.596L113.734 289.26L92.5586 279.101C91.6262 278.654 90.6988 278.129 89.7361 277.747C88.7298 277.347 87.6087 278.155 86.6993 278.59L74.0533 284.66L64.4596 289.263L43.2794 279.101C42.3471 278.654 41.4196 278.129 40.4569 277.747C39.4507 277.347 38.3295 278.155 37.4201 278.59L24.7725 284.66L17 288.389V291.12C17.1978 291.014 17.3915 290.911 17.5745 290.823L30.2255 284.749L39.8167 280.15L60.9985 290.312C61.9317 290.759 62.8591 291.284 63.8219 291.666C64.8281 292.066 65.9492 291.258 66.8586 290.823L79.5063 284.749L89.1 280.146L110.094 290.222L113.119 291.674C113.301 291.763 113.501 291.807 113.703 291.803C113.929 291.82 114.156 291.775 114.359 291.674L135.478 281.323L137.873 280.149L159.048 290.308C159.981 290.755 160.909 291.28 161.871 291.662C162.878 292.062 163.999 291.254 164.908 290.819L177.553 284.749L187.147 280.146L208.326 290.312C209.26 290.759 210.187 291.284 211.15 291.666C211.421 291.768 211.714 291.796 212 291.748V289.161Z" fill="#758799" fill-opacity="0.2"/>
<path d="M212 316.799L211.787 316.901L190.607 306.739C189.675 306.292 188.747 305.767 187.785 305.385C186.779 304.986 185.657 305.793 184.748 306.229L172.097 312.298L162.503 316.901L141.513 306.829C140.528 306.355 139.543 305.815 138.533 305.399C137.548 304.996 136.615 305.685 135.736 306.116L123.261 312.234L113.735 316.902L92.5594 306.743C91.6271 306.296 90.6996 305.771 89.7369 305.389C88.7307 304.99 87.6095 305.797 86.7001 306.233L74.0533 312.298L64.4596 316.901L43.2794 306.739C42.3471 306.292 41.4196 305.767 40.4569 305.385C39.4507 304.986 38.3295 305.793 37.4201 306.229L24.7725 312.298L17 316.028V318.758C17.1978 318.653 17.3915 318.549 17.5745 318.461L30.2255 312.391L39.8167 307.788L60.9985 317.948C61.9317 318.395 62.8591 318.92 63.8219 319.303C64.8281 319.702 65.9492 318.895 66.8586 318.458L79.5096 312.389L89.1033 307.786L110.097 317.859L113.122 319.31C113.304 319.399 113.504 319.443 113.706 319.439C113.933 319.456 114.16 319.412 114.363 319.31L135.479 308.963L137.874 307.789L159.049 317.948C159.982 318.395 160.909 318.92 161.872 319.303C162.878 319.702 164 318.895 164.909 318.458L177.56 312.389L187.154 307.786L208.326 317.948C209.26 318.395 210.187 318.92 211.15 319.303C211.421 319.404 211.714 319.432 212 319.384V316.799Z" fill="#758799" fill-opacity="0.2"/>
<path d="M212 344.439L211.787 344.541L190.607 334.379C189.675 333.932 188.747 333.406 187.785 333.024C186.779 332.626 185.657 333.432 184.748 333.868L172.097 339.938L162.507 344.54L141.513 334.467C140.528 333.994 139.543 333.454 138.533 333.038C137.548 332.635 136.615 333.324 135.736 333.755L123.261 339.872L113.734 344.54L92.5586 334.381C91.6263 333.934 90.6988 333.409 89.7361 333.027C88.7298 332.628 87.6087 333.435 86.6993 333.87L74.0484 339.94L64.4596 344.54L43.2794 334.379C42.3471 333.932 41.4196 333.406 40.4569 333.024C39.4507 332.626 38.3295 333.432 37.4201 333.868L24.7725 339.938L17 343.667V346.397C17.1978 346.292 17.3915 346.188 17.5745 346.1L30.2255 340.031L39.8167 335.428L60.996 345.59C61.9292 346.037 62.8567 346.562 63.8194 346.944C64.8256 347.343 65.9468 346.536 66.8562 346.1L79.5071 340.031L89.1008 335.428L110.095 345.501L113.12 346.952C113.301 347.04 113.501 347.084 113.703 347.081C113.93 347.098 114.157 347.053 114.36 346.952L135.476 336.605L137.871 335.431L159.046 345.59C159.98 346.037 160.907 346.562 161.87 346.944C162.876 347.343 163.997 346.536 164.906 346.1L177.557 340.031L187.151 335.428L208.33 345.59C209.264 346.037 210.191 346.562 211.154 346.944C211.425 347.045 211.718 347.073 212.004 347.025L212 344.439Z" fill="#758799" fill-opacity="0.2"/>
<path d="M212 372.077L211.787 372.179L190.607 362.017C189.675 361.57 188.747 361.045 187.785 360.663C186.779 360.263 185.657 361.071 184.748 361.506L172.097 367.576L162.503 372.179L141.509 362.107C140.525 361.633 139.54 361.093 138.529 360.677C137.544 360.274 136.612 360.963 135.733 361.394L123.258 367.512L113.731 372.18L92.5561 362.021C91.6238 361.574 90.6963 361.049 89.7336 360.667C88.7274 360.267 87.6062 361.075 86.6968 361.51L74.0459 367.58L64.4522 372.183L43.2794 362.017C42.3471 361.57 41.4196 361.045 40.4569 360.663C39.4507 360.263 38.3295 361.071 37.4201 361.506L24.7725 367.576L17 371.305V374.036C17.1978 373.93 17.3915 373.827 17.5745 373.739L30.2255 367.669L39.8167 363.066L60.9985 373.228C61.9317 373.675 62.8591 374.2 63.8219 374.582C64.8281 374.982 65.9492 374.174 66.8586 373.739L79.5096 367.669L89.1033 363.066L110.097 373.139L113.122 374.59C113.304 374.679 113.504 374.723 113.706 374.719C113.933 374.736 114.16 374.692 114.363 374.59L135.479 364.243L137.874 363.069L159.049 373.228C159.982 373.675 160.909 374.2 161.872 374.582C162.878 374.982 164 374.174 164.909 373.739L177.56 367.669L187.154 363.066L208.333 373.228C209.266 373.675 210.194 374.2 211.156 374.582C211.427 374.684 211.721 374.712 212.007 374.664L212 372.077Z" fill="#758799" fill-opacity="0.2"/>
<path d="M212 399.715L211.787 399.817L190.607 389.655C189.675 389.208 188.747 388.683 187.785 388.301C186.779 387.902 185.657 388.709 184.748 389.145L172.097 395.214L162.503 399.817L141.51 389.745C140.525 389.271 139.54 388.731 138.529 388.315C137.544 387.912 136.612 388.602 135.733 389.032L123.258 395.146L113.731 399.814L92.5562 389.655C91.6238 389.208 90.6964 388.683 89.7336 388.301C88.7274 387.902 87.6062 388.709 86.6969 389.145L74.0459 395.214L64.4522 399.817L43.2794 389.655C42.3471 389.208 41.4196 388.683 40.4569 388.301C39.4507 387.902 38.3295 388.709 37.4201 389.145L24.7725 395.214L17 398.947V401.678C17.1978 401.573 17.3915 401.469 17.5745 401.381L30.2255 395.312L39.8167 390.704L60.996 400.866C61.9292 401.313 62.8567 401.839 63.8194 402.221C64.8256 402.62 65.9468 401.813 66.8562 401.377L79.5071 395.307L89.1008 390.704L110.095 400.777L113.12 402.229C113.301 402.317 113.501 402.361 113.703 402.358C113.93 402.375 114.157 402.33 114.36 402.229L135.476 391.881L137.871 390.708L159.046 400.866C159.98 401.313 160.907 401.839 161.87 402.221C162.876 402.62 163.997 401.813 164.906 401.377L177.557 395.307L187.151 390.704L208.33 400.866C209.264 401.313 210.191 401.839 211.154 402.221C211.425 402.322 211.718 402.35 212.004 402.302L212 399.715Z" fill="#758799" fill-opacity="0.2"/>
<path d="M212 427.354L211.787 427.456L190.607 417.294C189.675 416.847 188.747 416.321 187.785 415.94C186.779 415.54 185.657 416.348 184.748 416.783L172.097 422.853L162.503 427.456L141.513 417.382C140.528 416.908 139.543 416.368 138.533 415.952C137.548 415.549 136.615 416.238 135.736 416.669L123.261 422.783L113.735 427.451L92.5594 417.292C91.6271 416.845 90.6996 416.32 89.7369 415.938C88.7307 415.538 87.6095 416.346 86.7001 416.782L74.0492 422.851L64.4596 427.456L43.2794 417.294C42.3471 416.847 41.4196 416.321 40.4569 415.94C39.4507 415.54 38.3295 416.348 37.4201 416.783L24.7725 422.853L17 426.582V429.312C17.1978 429.207 17.3915 429.104 17.5745 429.015L30.2255 422.946L39.8167 418.343L60.996 428.505C61.9292 428.952 62.8567 429.477 63.8194 429.859C64.8256 430.259 65.9468 429.451 66.8562 429.015L79.5071 422.946L89.1008 418.343L110.095 428.415L113.12 429.867C113.301 429.955 113.501 430 113.703 429.996C113.93 430.013 114.157 429.969 114.36 429.867L135.476 419.52L137.871 418.346L159.046 428.505C159.98 428.952 160.907 429.477 161.87 429.859C162.876 430.259 163.997 429.451 164.906 429.015L177.557 422.946L187.151 418.343L208.33 428.505C209.264 428.952 210.191 429.477 211.154 429.859C211.425 429.96 211.718 429.989 212.004 429.94L212 427.354Z" fill="#758799" fill-opacity="0.2"/>
</g>
</g>
<path d="M374.898 115.754C380.076 120.824 385.348 125.894 390.526 130.965C396.74 137.068 402.954 143.077 409.167 149.086C415.852 155.565 422.442 162.044 429.127 168.522C435.717 175.001 442.307 181.386 448.897 187.771C454.923 193.592 460.948 199.508 466.974 205.329C471.963 210.024 476.859 214.813 481.755 219.601C484.673 222.512 487.592 225.329 490.51 228.146C489.098 228.427 487.686 228.615 486.368 228.803C485.05 227.582 483.732 226.268 482.414 225.047C478.93 221.761 475.541 218.381 472.057 215C467.256 210.306 462.36 205.611 457.559 200.916C451.816 195.376 446.167 189.837 440.424 184.297C434.305 178.381 428.185 172.372 422.066 166.457C416.04 160.635 409.921 154.72 403.895 148.805C398.34 143.453 392.88 138.101 387.325 132.749C382.712 128.336 378.193 123.923 373.674 119.509C370.567 116.599 367.554 113.594 364.448 110.589C363.694 109.838 362.941 109.181 362.282 108.43C362.471 106.928 362.659 105.519 362.847 104.017C363.13 104.299 363.318 104.486 363.6 104.768C367.366 108.43 371.132 112.092 374.898 115.754Z" fill="#758799" fill-opacity="0.2"/>
<path d="M369.155 140.072C378.57 149.18 387.89 158.288 397.305 167.396C408.038 177.912 418.865 188.428 429.692 198.944C438.636 207.676 447.58 216.315 456.523 225.047C457.936 226.455 459.442 227.864 460.854 229.272C458.971 229.084 457.088 228.897 455.205 228.615C451.816 225.047 447.956 221.667 444.473 218.193C436.564 210.587 428.75 202.982 420.936 195.376C411.898 186.644 402.86 177.818 393.822 169.086C386.384 161.856 378.852 154.532 371.415 147.302C368.59 144.579 365.672 141.762 362.847 138.946C362.471 136.974 362.282 135.096 362 133.124C364.354 135.471 366.707 137.725 369.155 140.072Z" fill="#758799" fill-opacity="0.2"/>
<path d="M378.005 178.569C381.394 181.855 384.783 185.142 388.267 188.428C394.763 194.719 401.259 201.104 407.755 207.395C410.391 209.93 412.933 212.465 415.569 215C415.569 215 415.475 215 415.475 214.906C404.743 208.615 395.328 200.634 387.137 190.963C383.842 187.114 380.829 182.982 378.005 178.569Z" fill="#758799" fill-opacity="0.2"/>
<path d="M530.052 182.137C523.932 176.222 517.718 170.212 511.599 164.203C504.255 157.067 497.006 150.025 489.663 142.889C481.849 135.284 474.034 127.678 466.22 120.073C458.5 112.467 450.686 104.956 442.966 97.4441C435.811 90.5898 428.75 83.6416 421.689 76.7873C415.851 71.1536 410.109 65.52 404.271 59.8863C400.317 56.1305 396.457 52.2808 392.503 48.525C391.844 47.8678 391.185 47.3044 390.62 46.6471C391.467 45.7082 392.315 44.8631 393.162 44.0181C394.574 45.3326 395.892 46.6471 397.21 47.9617C401.635 52.2808 406.06 56.5061 410.485 60.8252C416.699 66.8345 422.818 72.8437 429.032 78.853C436.376 85.989 443.625 93.0311 450.968 100.167C458.783 107.773 466.597 115.378 474.411 122.983C482.131 130.589 489.945 138.1 497.665 145.612C504.82 152.466 511.881 159.415 518.942 166.269C524.779 171.996 530.617 177.63 536.454 183.264C540.408 187.02 544.268 190.869 548.222 194.625C548.881 195.282 549.446 195.846 550.105 196.503L550.011 196.597C549.823 196.691 549.54 196.879 549.352 197.066C548.787 197.724 548.128 198.381 547.469 198.944C546.057 197.63 544.645 196.315 543.326 195.001C538.902 190.681 534.477 186.456 530.052 182.137Z" fill="#758799" fill-opacity="0.2"/>
<path d="M543.798 75.7545C532.688 64.9566 521.673 54.2526 510.564 43.4547C501.431 34.6286 492.299 25.7086 483.167 16.8825C481.472 15.1924 479.778 13.5962 478.083 12C479.966 12.0939 481.943 12.2817 483.826 12.4695C484.862 13.5023 485.897 14.4412 486.933 15.4741C489.569 18.1031 492.299 20.6383 494.935 23.2674C503.032 31.0606 511.034 38.9478 519.131 46.741C528.452 55.8488 537.866 64.9566 547.187 74.0643C555.001 81.5759 562.721 89.0875 570.441 96.599C573.36 99.4159 576.372 102.327 579.291 105.143C579.573 107.021 579.762 108.899 579.95 110.777C577.408 108.336 574.866 105.989 572.418 103.547C562.815 94.2517 553.306 85.05 543.798 75.7545Z" fill="#758799" fill-opacity="0.2"/>
<path d="M555.377 51.2481C559.426 56.1306 563.192 61.5765 566.392 67.3041C566.581 67.5858 566.675 67.8674 566.863 68.1491C562.344 63.7361 557.825 59.323 553.306 55.0039C546.339 48.2435 539.372 41.483 532.405 34.7226C528.64 31.0607 524.78 27.3989 521.014 23.6431C522.143 24.2064 523.367 24.8637 524.497 25.521C536.36 32.1875 546.622 40.7319 555.377 51.2481Z" fill="#758799" fill-opacity="0.2"/>
<path d="M566.393 127.584C561.027 122.42 555.755 117.35 550.482 112.186C544.269 106.083 537.961 100.073 531.747 93.9701C525.063 87.4914 518.284 80.9187 511.6 74.44C504.915 67.9613 498.231 61.4825 491.546 55.0038C485.521 49.1823 479.401 43.267 473.376 37.3516C468.48 32.563 463.491 27.6805 458.501 22.8918C455.488 19.9811 452.381 16.9765 449.274 13.9718C450.687 13.6902 452.193 13.4085 453.605 13.2207C454.923 14.5352 456.147 15.7559 457.465 16.9765C461.043 20.3567 464.526 23.8308 468.01 27.211C472.905 31.9996 477.801 36.6944 482.697 41.483C488.44 47.1167 494.277 52.7504 500.02 58.384C506.233 64.3933 512.447 70.4964 518.661 76.5057C524.78 82.5149 530.994 88.4303 537.114 94.4396C542.762 99.8855 548.317 105.331 553.966 110.777C558.579 115.284 563.192 119.697 567.805 124.204C570.912 127.303 574.019 130.307 577.126 133.312C577.879 134.063 578.538 134.72 579.291 135.472C579.103 136.88 578.915 138.194 578.726 139.603C578.444 139.321 578.162 139.04 577.785 138.758C574.019 135.002 570.253 131.34 566.393 127.584Z" fill="#758799" fill-opacity="0.2"/>
<path d="M556.79 148.335C550.952 142.701 545.115 136.974 539.278 131.34C532.406 124.673 525.439 117.913 518.566 111.247C511.128 104.017 503.785 96.8806 496.347 89.6507C489.004 82.5147 481.66 75.3788 474.317 68.2428C467.632 61.6701 460.854 55.1914 454.169 48.6188C448.709 43.3607 443.154 38.0087 437.694 32.6567C433.928 28.9948 430.256 25.4268 426.49 21.7649C426.302 21.5771 426.208 21.4832 426.02 21.2954C427.243 20.7321 428.467 20.1687 429.785 19.6992C431.198 21.1076 432.704 22.4222 434.116 23.9245C438.07 27.8681 442.119 31.7177 446.167 35.6613C451.722 41.1072 457.37 46.5531 462.925 51.999C469.61 58.3838 476.2 64.8626 482.884 71.3413C489.945 78.2895 497.1 85.1438 504.161 92.092C511.222 98.8524 518.189 105.707 525.25 112.561C531.652 118.852 538.148 125.049 544.55 131.34C549.823 136.41 555.095 141.574 560.367 146.645C563.945 150.119 567.522 153.593 571.1 157.067C571.853 157.818 572.7 158.569 573.454 159.414C572.983 160.729 572.512 161.95 571.947 163.17C571.1 162.325 570.253 161.48 569.405 160.635C565.169 156.504 561.026 152.466 556.79 148.335Z" fill="#758799" fill-opacity="0.2"/>
<path d="M494.182 206.925C488.627 201.573 483.073 196.127 477.518 190.775C470.928 184.297 464.337 177.912 457.747 171.527C450.686 164.579 443.625 157.724 436.564 150.87C429.597 144.11 422.536 137.255 415.569 130.495C409.167 124.298 402.86 118.101 396.458 111.904C391.279 106.834 386.007 101.763 380.829 96.693C377.252 93.2189 373.768 89.8387 370.191 86.3646C369.437 85.6134 368.59 84.8623 367.837 84.1111C368.308 82.8905 368.684 81.6698 369.155 80.4492C370.002 81.2004 370.85 82.0454 371.697 82.7966C375.839 86.8341 380.076 90.9654 384.218 95.0029C389.961 100.73 395.799 106.364 401.636 111.998C408.508 118.758 415.381 125.425 422.254 132.091C429.597 139.227 436.941 146.363 444.284 153.499C451.628 160.635 458.877 167.677 466.22 174.813C472.905 181.292 479.589 187.771 486.274 194.25C491.734 199.508 497.195 204.86 502.655 210.118C506.327 213.686 510.093 217.348 513.765 220.916C513.859 221.01 514.047 221.197 514.141 221.291C512.917 221.761 511.693 222.324 510.469 222.794C508.963 221.385 507.551 219.977 506.045 218.568C502.185 214.719 498.136 210.775 494.182 206.925Z" fill="#758799" fill-opacity="0.2"/>
<path d="M544.456 166.363C538.431 160.447 532.311 154.532 526.192 148.617C518.942 141.575 511.693 134.533 504.444 127.49C496.629 119.979 488.909 112.373 481.095 104.862C473.469 97.4441 465.749 89.9325 458.123 82.5148C451.062 75.7544 444.095 68.9001 437.034 62.0458C431.197 56.4121 425.454 50.8724 419.711 45.2387C415.851 41.4829 411.897 37.6332 408.037 33.8774C407.566 33.408 407.096 33.0324 406.625 32.5629C407.661 31.8118 408.696 31.1545 409.732 30.4033C411.144 31.8117 412.65 33.2202 414.063 34.6286C418.393 38.8538 422.724 42.9852 427.055 47.2105C433.08 53.1258 439.106 58.9473 445.131 64.7688C452.286 71.717 459.347 78.5713 466.502 85.5195C474.128 92.9372 481.754 100.355 489.38 107.773C496.912 115.19 504.538 122.514 512.07 129.838C518.942 136.504 525.909 143.265 532.782 149.931C538.431 155.471 544.08 160.917 549.728 166.457C553.588 170.212 557.354 173.874 561.214 177.63C561.873 178.287 562.626 178.945 563.285 179.696C562.626 180.729 561.967 181.668 561.308 182.607C560.084 181.48 558.955 180.353 557.731 179.226C553.306 174.907 548.881 170.682 544.456 166.363Z" fill="#758799" fill-opacity="0.2"/>
<path d="M513.388 195.752C507.363 189.931 501.432 184.109 495.406 178.288C488.345 171.433 481.19 164.485 474.129 157.631C466.503 150.213 458.971 142.889 451.345 135.472C443.814 128.148 436.282 120.824 428.75 113.5C421.877 106.834 415.005 100.167 408.132 93.5007C402.483 88.0548 396.834 82.515 391.185 77.0691C387.42 73.4072 383.56 69.6514 379.794 65.9896C379.041 65.2384 378.287 64.5811 377.534 63.83C378.193 62.7971 378.852 61.7643 379.511 60.7314C380.641 61.8582 381.865 62.9849 382.995 64.0178C387.42 68.243 391.75 72.5622 396.175 76.7874C402.295 82.7028 408.414 88.7121 414.534 94.6274C421.783 101.67 429.033 108.712 436.282 115.754C444.096 123.265 451.816 130.777 459.536 138.288C467.162 145.706 474.882 153.218 482.508 160.635C489.475 167.396 496.536 174.25 503.503 181.011C509.246 186.644 514.989 192.184 520.732 197.818C524.686 201.573 528.546 205.329 532.406 209.085C532.877 209.554 533.347 209.93 533.818 210.4C532.782 211.151 531.747 211.808 530.711 212.559C529.299 211.057 527.793 209.648 526.286 208.24C521.956 204.109 517.719 199.883 513.388 195.752Z" fill="#758799" fill-opacity="0.2"/>
<g clip-path="url(#clip1_396_294)">
<path d="M502.668 76.7393H94.3322C87.3185 76.7393 81.6328 82.4249 81.6328 89.4386V382.675C81.6328 389.689 87.3185 395.375 94.3322 395.375H502.668C509.681 395.375 515.367 389.689 515.367 382.675V89.4386C515.367 82.4249 509.681 76.7393 502.668 76.7393Z" fill="white"/>
<path d="M471.383 133.398H125.617C122.95 133.398 120.789 135.559 120.789 138.226V361.375C120.789 364.041 122.95 366.202 125.617 366.202H471.383C474.049 366.202 476.21 364.041 476.21 361.375V138.226C476.21 135.559 474.049 133.398 471.383 133.398Z" fill="#FF2D20"/>
<path d="M93.2507 62.0449H503.531C509.948 62.0449 515.149 67.1383 515.149 73.4214V107.323H81.6328V73.4214C81.6328 67.1383 86.8343 62.0449 93.2507 62.0449Z" fill="#071546"/>
<path d="M106.466 92.8041C111.046 92.8041 114.758 89.1687 114.758 84.6841C114.758 80.1996 111.046 76.5642 106.466 76.5642C101.886 76.5642 98.1738 80.1996 98.1738 84.6841C98.1738 89.1687 101.886 92.8041 106.466 92.8041Z" fill="#FF363C"/>
<path d="M137.437 92.8041C142.016 92.8041 145.729 89.1687 145.729 84.6841C145.729 80.1996 142.016 76.5642 137.437 76.5642C132.857 76.5642 129.145 80.1996 129.145 84.6841C129.145 89.1687 132.857 92.8041 137.437 92.8041Z" fill="#FF9800"/>
<path d="M168.413 92.8041C172.993 92.8041 176.706 89.1687 176.706 84.6841C176.706 80.1996 172.993 76.5642 168.413 76.5642C163.834 76.5642 160.121 80.1996 160.121 84.6841C160.121 89.1687 163.834 92.8041 168.413 92.8041Z" fill="#3E863D"/>
</g>
<g clip-path="url(#clip2_396_294)">
<path fill-rule="evenodd" clip-rule="evenodd" d="M367.233 211.604C367.285 211.79 367.311 211.982 367.311 212.175V242.162C367.311 242.548 367.207 242.927 367.01 243.26C366.813 243.593 366.531 243.869 366.192 244.059L340.542 258.551V287.273C340.541 287.658 340.436 288.036 340.24 288.369C340.043 288.701 339.761 288.977 339.422 289.167L285.883 319.415C285.761 319.486 285.625 319.528 285.494 319.574C285.442 319.591 285.394 319.621 285.344 319.635C284.969 319.732 284.575 319.732 284.2 319.635C284.139 319.618 284.083 319.585 284.025 319.563C283.9 319.522 283.775 319.481 283.658 319.415L230.117 289.172C229.777 288.981 229.495 288.705 229.299 288.371C229.103 288.038 229 287.658 229 287.273V197.31C229 197.117 229.027 196.925 229.078 196.739C229.094 196.673 229.133 196.616 229.156 196.555C229.2 196.44 229.239 196.322 229.3 196.215C229.342 196.144 229.403 196.086 229.45 196.023C229.517 195.935 229.572 195.842 229.65 195.765C229.714 195.702 229.797 195.655 229.869 195.6C229.95 195.54 230.022 195.468 230.114 195.416L230.117 195.413L256.889 180.291C257.228 180.101 257.61 180.001 258 180.001C258.39 180.001 258.772 180.101 259.111 180.291L285.883 195.413H285.889C285.978 195.468 286.05 195.54 286.133 195.6C286.206 195.655 286.286 195.702 286.35 195.765C286.428 195.842 286.483 195.935 286.55 196.02C286.6 196.086 286.661 196.144 286.703 196.215C286.764 196.322 286.803 196.44 286.847 196.555C286.869 196.616 286.906 196.673 286.925 196.739C286.975 196.926 287 197.118 287 197.31V253.5L309.311 240.897V212.175C309.311 211.982 309.336 211.79 309.386 211.604C309.406 211.538 309.442 211.483 309.467 211.42C309.508 211.305 309.547 211.187 309.608 211.08C309.65 211.008 309.711 210.951 309.761 210.888C309.828 210.8 309.883 210.706 309.961 210.632C310.025 210.569 310.106 210.522 310.178 210.468C310.261 210.404 310.333 210.33 310.425 210.281V210.278L337.197 195.155C337.536 194.964 337.92 194.864 338.31 194.864C338.7 194.864 339.083 194.964 339.422 195.155L366.192 210.278C366.286 210.333 366.361 210.404 366.444 210.465C366.514 210.52 366.597 210.569 366.661 210.629C366.739 210.706 366.794 210.8 366.858 210.885C366.908 210.951 366.969 211.008 367.011 211.08C367.075 211.187 367.111 211.305 367.156 211.42C367.181 211.483 367.217 211.538 367.233 211.604ZM362.85 240.897V215.96L353.481 221.253L340.542 228.563V253.5L362.85 240.897ZM336.081 286.007V261.054L323.347 268.186L287 288.541V313.727L336.081 286.002V286.007ZM233.461 201.096V286.007L282.539 313.733V288.549L256.9 274.313L256.894 274.305L256.883 274.302C256.794 274.253 256.725 274.181 256.644 274.121C256.572 274.066 256.494 274.022 256.431 273.962L256.425 273.953C256.353 273.885 256.303 273.8 256.242 273.723C256.186 273.651 256.119 273.588 256.075 273.511L256.072 273.503C256.022 273.421 255.992 273.322 255.956 273.229C255.919 273.149 255.872 273.072 255.85 272.984C255.819 272.88 255.817 272.768 255.803 272.66C255.794 272.578 255.769 272.498 255.769 272.413V213.696L242.833 206.388L233.461 201.096ZM258 184.713L235.703 197.313L258 209.908L280.3 197.31L258 184.713ZM269.6 263.327L282.539 256.02V201.096L273.172 206.388L260.231 213.698V268.62L269.6 263.327ZM338.311 199.58L316.011 212.175L338.311 224.772L360.608 212.175L338.311 199.58ZM336.081 228.563L323.139 221.253L313.772 215.96V240.897L326.711 248.207L336.081 253.5V228.563ZM284.767 284.755L317.475 266.435L333.825 257.277L311.542 244.688L285.883 259.182L262.5 272.391L284.767 284.755Z" fill="white"/>
</g>
<path d="M93.7458 176.208C93.7458 150.438 72.8492 129.328 47.0711 129.328C21.293 129.328 0.394531 150.438 0.394531 176.208C0.394531 186.408 5.81037 199.582 14.5069 209.295C23.1303 218.92 25.5865 235.124 25.5865 248.044V253.11H68.5558V248.087C68.5558 235.166 71.0119 218.993 79.5912 209.338C88.3165 199.525 93.7458 185.18 93.7458 176.208Z" fill="#FFDB7B"/>
<path d="M86.064 176.082C86.064 154.557 68.6115 136.92 47.0711 136.92C25.5307 136.92 8.08203 154.555 8.08203 176.082C8.08203 184.609 12.6042 195.61 19.8708 203.724C27.074 211.765 32.4226 225.301 32.4226 236.094V240.322H61.7216V236.131C61.7216 225.335 67.0701 211.825 74.2387 203.759C81.5284 195.562 86.064 183.579 86.064 176.084V176.082Z" fill="#FFB900"/>
<path d="M58.9179 276.749H35.2251C34.3967 276.749 33.6415 276.211 33.1917 275.327L29.9688 266.988H64.1781L60.9551 275.327C60.5035 276.211 59.7501 276.749 58.9218 276.749H58.9179Z" fill="#071546"/>
<path d="M64.6719 233.838H29.4709C26.8555 233.838 24.7354 235.958 24.7354 238.573V265.843C24.7354 268.458 26.8555 270.578 29.4709 270.578H64.6719C67.2873 270.578 69.4074 268.458 69.4074 265.843V238.573C69.4074 235.958 67.2873 233.838 64.6719 233.838Z" fill="#3A76BB"/>
<path d="M49.9598 243.683C50.3955 243.683 50.7487 244.036 50.7487 244.472C50.7487 244.896 50.4139 245.242 49.994 245.26L49.9598 245.26H24.7928C24.3571 245.26 24.0039 244.907 24.0039 244.472C24.0039 244.047 24.3388 243.701 24.7586 243.683L24.7928 243.683H49.9598Z" fill="white"/>
<path d="M49.9598 260.017C50.3955 260.017 50.7487 260.37 50.7487 260.806C50.7487 261.23 50.4139 261.576 49.994 261.594L49.9598 261.594H24.7928C24.3571 261.594 24.0039 261.241 24.0039 260.806C24.0039 260.381 24.3388 260.035 24.7586 260.017L24.7928 260.017H49.9598Z" fill="white"/>
<path d="M69.2625 251.849C69.6982 251.849 70.0515 252.202 70.0515 252.638C70.0515 253.062 69.7166 253.408 69.2967 253.426L69.2625 253.426H44.0956C43.6599 253.426 43.3066 253.073 43.3066 252.638C43.3066 252.213 43.6415 251.867 44.0614 251.849L44.0956 251.849H69.2625Z" fill="white"/>
<path d="M50.2549 157.367L32.6603 184.168C31.7136 185.621 32.7319 187.407 34.4374 187.407H42.3191L32.6284 205.712C31.9061 207.192 33.7692 208.565 34.9115 207.395L61.266 180.918C62.6104 179.54 61.6558 177.187 59.753 177.187H47.835L52.8211 158.536C53.2109 156.944 51.1411 156.01 50.2549 157.367Z" fill="white"/>
<path d="M494.891 176.45C494.891 177.175 495.449 177.762 496.139 177.762C496.828 177.762 497.387 177.175 497.387 176.45V158.966C497.387 158.241 496.828 157.654 496.139 157.654C495.449 157.654 494.891 158.241 494.891 158.966V176.45Z" fill="#FFB900"/>
<path d="M481.735 180.707C481.981 181.13 482.427 181.367 482.886 181.367C483.111 181.367 483.34 181.31 483.549 181.19C484.184 180.825 484.402 180.018 484.035 179.386L475.181 164.139C474.815 163.508 474.003 163.291 473.367 163.656C472.732 164.02 472.515 164.828 472.881 165.459L481.735 180.707Z" fill="#FFB900"/>
<path d="M473.045 191.213C472.821 191.213 472.594 191.155 472.386 191.035L457.139 182.181C456.507 181.815 456.291 181.003 456.656 180.367C457.02 179.732 457.828 179.514 458.459 179.881L473.707 188.735C474.338 189.101 474.555 189.913 474.19 190.549C473.946 190.975 473.502 191.213 473.045 191.213Z" fill="#FFB900"/>
<path d="M451.966 204.387H469.45C470.175 204.387 470.762 203.828 470.762 203.139C470.762 202.449 470.175 201.891 469.45 201.891H451.966C451.241 201.891 450.654 202.449 450.654 203.139C450.654 203.828 451.241 204.387 451.966 204.387Z" fill="#FFB900"/>
<path d="M457.8 226.297C457.344 226.297 456.9 226.059 456.656 225.633C456.291 224.997 456.507 224.185 457.139 223.819L472.386 214.965C473.018 214.599 473.825 214.816 474.19 215.451C474.555 216.086 474.338 216.899 473.707 217.265L458.459 226.119C458.251 226.239 458.024 226.297 457.8 226.297Z" fill="#FFB900"/>
<path d="M473.367 242.344C473.577 242.464 473.805 242.521 474.03 242.521C474.489 242.521 474.935 242.285 475.181 241.861L484.035 226.614C484.401 225.982 484.184 225.175 483.549 224.81C482.913 224.445 482.101 224.662 481.735 225.293L472.881 240.541C472.515 241.172 472.732 241.98 473.367 242.344Z" fill="#FFB900"/>
<path d="M496.139 248.346C495.449 248.346 494.891 247.759 494.891 247.034V229.55C494.891 228.825 495.449 228.238 496.139 228.238C496.828 228.238 497.387 228.825 497.387 229.55V247.034C497.387 247.759 496.828 248.346 496.139 248.346Z" fill="#FFB900"/>
<path d="M516.819 241.861C517.065 242.285 517.511 242.521 517.97 242.521C518.195 242.521 518.424 242.464 518.633 242.344C519.268 241.98 519.485 241.172 519.119 240.541L510.265 225.293C509.899 224.662 509.087 224.445 508.451 224.81C507.816 225.175 507.599 225.982 507.965 226.614L516.819 241.861Z" fill="#FFB900"/>
<path d="M534.2 226.297C533.976 226.297 533.749 226.239 533.541 226.119L518.293 217.265C517.662 216.899 517.445 216.087 517.81 215.451C518.174 214.816 518.982 214.598 519.614 214.965L534.861 223.819C535.493 224.185 535.709 224.997 535.344 225.633C535.1 226.059 534.656 226.297 534.2 226.297Z" fill="#FFB900"/>
<path d="M522.55 204.387H540.034C540.759 204.387 541.346 203.828 541.346 203.139C541.346 202.449 540.759 201.891 540.034 201.891H522.55C521.825 201.891 521.238 202.449 521.238 203.139C521.238 203.828 521.825 204.387 522.55 204.387Z" fill="#FFB900"/>
<path d="M518.955 191.213C518.498 191.213 518.054 190.975 517.81 190.549C517.445 189.913 517.662 189.101 518.293 188.735L533.541 179.881C534.173 179.515 534.98 179.732 535.344 180.367C535.709 181.003 535.493 181.815 534.861 182.181L519.614 191.035C519.406 191.155 519.179 191.213 518.955 191.213Z" fill="#FFB900"/>
<path d="M508.451 181.19C508.661 181.31 508.889 181.367 509.114 181.367C509.573 181.367 510.019 181.13 510.265 180.707L519.119 165.459C519.485 164.828 519.268 164.02 518.633 163.656C517.997 163.291 517.185 163.508 516.819 164.139L507.965 179.386C507.598 180.018 507.816 180.825 508.451 181.19Z" fill="#FFB900"/>
<path fill-rule="evenodd" clip-rule="evenodd" d="M532.862 239.38C532.74 239.38 532.618 239.398 532.498 239.436C532.117 239.556 531.82 239.857 531.704 240.24L525.546 260.629C525.262 261.574 524.43 261.719 524.182 261.741C523.933 261.765 523.09 261.768 522.642 260.889L494.487 205.605C494.208 205.059 494.261 204.439 494.627 203.948C494.993 203.457 495.57 203.23 496.172 203.341L558.106 214.804C559.069 214.983 559.309 215.788 559.359 216.031C559.41 216.274 559.512 217.108 558.7 217.657L540.477 229.986C540.152 230.206 539.953 230.571 539.945 230.964C539.937 231.358 540.12 231.731 540.436 231.964L566.359 251.107C566.629 251.306 566.692 251.679 566.501 251.956L560.819 260.199C560.687 260.391 560.502 260.445 560.403 260.46C560.305 260.474 560.112 260.478 559.929 260.334L533.608 239.638C533.393 239.469 533.129 239.38 532.862 239.38Z" fill="#FFB900"/>
<path fill-rule="evenodd" clip-rule="evenodd" d="M353.836 382.922C357.948 385.14 360.896 387.633 362.676 390.402C364.453 393.174 365.344 397.164 365.344 402.372V437.117C365.344 440.33 366.011 442.575 367.345 443.85C368.68 445.123 371.015 445.762 374.35 445.762H378.853C380.409 445.762 381.689 446.177 382.689 447.009C383.69 447.84 384.19 449.419 384.19 451.747C384.19 453.518 383.661 454.931 382.606 455.986C381.548 457.037 380.297 457.565 378.853 457.565H368.847C363.397 457.565 359.366 456.428 356.755 454.157C354.141 451.884 352.835 447.865 352.835 442.104V406.861C352.835 396.112 348.888 390.293 340.994 389.405C339.214 389.185 337.713 388.574 336.491 387.577C335.266 386.579 334.656 385.14 334.656 383.254C334.656 381.371 335.323 379.904 336.658 378.848C337.992 377.797 339.602 377.16 341.494 376.937C345.719 376.384 348.666 374.472 350.334 371.201C352.002 367.934 352.835 362.973 352.835 356.323V325.235C352.835 319.916 354.391 315.817 357.505 312.933C360.617 310.053 364.51 308.611 369.18 308.611H378.853C380.297 308.611 381.605 309.026 382.773 309.858C383.94 310.689 384.524 312.269 384.524 314.596C384.745 316.702 384.3 318.198 383.19 319.084C382.077 319.973 380.631 320.415 378.853 320.415H374.017C370.791 320.415 368.539 321.079 367.262 322.409C365.982 323.739 365.344 326.344 365.344 330.223V363.804C365.344 372.116 361.508 378.49 353.836 382.922Z" fill="#D2DBE5"/>
<path fill-rule="evenodd" clip-rule="evenodd" d="M428.619 363.804V330.223C428.619 326.344 427.98 323.739 426.701 322.409C425.424 321.079 423.172 320.415 419.946 320.415H415.109C413.332 320.415 411.886 319.973 410.773 319.084C409.663 318.198 409.217 316.702 409.439 314.596C409.439 312.269 410.022 310.689 411.19 309.858C412.357 309.026 413.666 308.611 415.109 308.611H424.783C429.453 308.611 433.346 310.053 436.457 312.933C439.571 315.817 441.127 319.916 441.127 325.235V356.323C441.127 362.973 441.961 367.934 443.629 371.201C445.297 374.472 448.244 376.384 452.468 376.937C454.36 377.16 455.971 377.797 457.305 378.848C458.639 379.904 459.306 381.371 459.306 383.254C459.306 385.14 458.697 386.579 457.472 387.577C456.25 388.574 454.749 389.185 452.969 389.405C445.075 390.293 441.127 396.112 441.127 406.861V442.104C441.127 447.865 439.821 451.884 437.208 454.157C434.597 456.428 430.565 457.565 425.116 457.565H415.109C413.666 457.565 412.415 457.037 411.357 455.986C410.301 454.931 409.772 453.518 409.772 451.747C409.772 449.419 410.273 447.84 411.273 447.009C412.274 446.177 413.554 445.762 415.109 445.762H419.612C422.948 445.762 425.283 445.123 426.617 443.85C427.951 442.575 428.619 440.33 428.619 437.117V402.372C428.619 397.164 429.51 393.174 431.287 390.402C433.067 387.633 436.014 385.14 440.126 382.922C432.455 378.49 428.619 372.116 428.619 363.804Z" fill="#D2DBE5"/>
<g clip-path="url(#clip3_396_294)">
<path d="M226.584 1.47087C227.598 -0.490291 230.402 -0.490291 231.416 1.47087L237.874 13.9595C238.132 14.4599 238.54 14.8677 239.041 15.1264L251.529 21.5836C253.49 22.5977 253.49 25.4023 251.529 26.4163L239.041 32.8735C238.54 33.1322 238.132 33.54 237.874 34.0406L231.416 46.529C230.402 48.4903 227.598 48.4903 226.584 46.529L220.126 34.0406C219.868 33.54 219.46 33.1322 218.959 32.8735L206.471 26.4163C204.51 25.4023 204.51 22.5977 206.471 21.5836L218.959 15.1264C219.46 14.8677 219.868 14.4599 220.126 13.9595L226.584 1.47087Z" fill="#FFB900"/>
</g>
<defs>
<clipPath id="clip0_396_294">
<rect width="195" height="180" fill="white" transform="translate(17 250)"/>
</clipPath>
<clipPath id="clip1_396_294">
<rect width="434" height="333" fill="white" transform="translate(81 62)"/>
</clipPath>
<clipPath id="clip2_396_294">
<rect width="139" height="140" fill="white" transform="translate(229 180)"/>
</clipPath>
<clipPath id="clip3_396_294">
<rect width="48" height="48" fill="white" transform="translate(205)"/>
</clipPath>
</defs>
</svg>
